HIERARCHY
ROOT Bip01_Pelvis
{
	OFFSET 0.000000 0.851314 0.000000
	CHANNELS 6 Xposition Yposition Zposition Zrotation Yrotation Xrotation 
	JOINT BN_Tail_01
	{
		OFFSET 0.000187 0.028044 -0.052993
		CHANNELS 3 Zrotation Yrotation Xrotation
		JOINT BN_Tail_02
		{
			OFFSET 0.001566 -0.130999 -0.253502
			CHANNELS 3 Zrotation Yrotation Xrotation
			JOINT BN_Tail_03
			{
				OFFSET 0.002136 -0.121295 -0.345684
				CHANNELS 3 Zrotation Yrotation Xrotation
				End Site #name: BN_Tail_04
				{
					OFFSET 0.001866 -0.107952 -0.302019
				}
			}
		}
	}
	JOINT Bip01_Spine
	{
		OFFSET -0.000478 -0.001860 0.056081
		CHANNELS 3 Zrotation Yrotation Xrotation
		JOINT Bip01_R_Thigh
		{
			OFFSET -0.103206 -0.004950 -0.056319
			CHANNELS 3 Zrotation Yrotation Xrotation
			JOINT Bip01_R_Calf
			{
				OFFSET -0.035168 -0.334151 0.101862
				CHANNELS 3 Zrotation Yrotation Xrotation
				JOINT Bip01_R_HorseLink
				{
					OFFSET 0.042560 -0.277817 -0.272295
					CHANNELS 3 Zrotation Yrotation Xrotation
					JOINT Bip01_R_Foot
					{
						OFFSET -0.011909 -0.177327 0.020479
						CHANNELS 3 Zrotation Yrotation Xrotation
						JOINT Bip01_R_Toe0
						{
							OFFSET -0.043984 -0.054975 0.103623
							CHANNELS 3 Zrotation Yrotation Xrotation
							End Site #name: Bip01_R_Toe0Nub
							{
								OFFSET -0.004664 0.000043 0.010843
							}
						}
					}
				}
			}
		}
		JOINT Bip01_L_Thigh
		{
			OFFSET 0.101192 -0.005184 -0.055432
			CHANNELS 3 Zrotation Yrotation Xrotation
			JOINT Bip01_L_Calf
			{
				OFFSET 0.033910 -0.334151 0.102288
				CHANNELS 3 Zrotation Yrotation Xrotation
				JOINT Bip01_L_HorseLink
				{
					OFFSET -0.039191 -0.277817 -0.272801
					CHANNELS 3 Zrotation Yrotation Xrotation
					JOINT Bip01_L_Foot
					{
						OFFSET 0.011657 -0.177327 0.020623
						CHANNELS 3 Zrotation Yrotation Xrotation
						JOINT Bip01_L_Toe0
						{
							OFFSET 0.042702 -0.054975 0.104158
							CHANNELS 3 Zrotation Yrotation Xrotation
							End Site #name: Bip01_L_Toe0Nub
							{
								OFFSET 0.004530 0.000043 0.010900
							}
						}
					}
				}
			}
		}
		JOINT Bip01_Spine1
		{
			OFFSET -0.004049 0.013815 0.199289
			CHANNELS 3 Zrotation Yrotation Xrotation
			JOINT Bip01_Spine2
			{
				OFFSET -0.001941 -0.020172 0.314191
				CHANNELS 3 Zrotation Yrotation Xrotation
				JOINT Bip01_Neck
				{
					OFFSET -0.002107 -0.030863 0.341147
					CHANNELS 3 Zrotation Yrotation Xrotation
					JOINT Bip01_R_Clavicle
					{
						OFFSET -0.091120 0.063530 -0.181116
						CHANNELS 3 Zrotation Yrotation Xrotation
						JOINT Bip01_R_UpperArm
						{
							OFFSET -0.060873 -0.172290 0.208221
							CHANNELS 3 Zrotation Yrotation Xrotation
							JOINT Bip01_R_Forearm
							{
								OFFSET 0.015801 -0.250138 -0.185806
								CHANNELS 3 Zrotation Yrotation Xrotation
								JOINT Bip01_R_Hand
								{
									OFFSET 0.023841 -0.325029 0.018043
									CHANNELS 3 Zrotation Yrotation Xrotation
									JOINT Bip01_R_Finger0
									{
										OFFSET 0.022350 -0.094798 -0.005705
										CHANNELS 3 Zrotation Yrotation Xrotation
										End Site #name: Bip01_R_Finger0Nub
										{
											OFFSET -0.070772 -0.002725 0.131491
										}
									}
								}
							}
						}
					}
					JOINT Bip01_L_Clavicle
					{
						OFFSET 0.092652 0.058569 -0.182004
						CHANNELS 3 Zrotation Yrotation Xrotation
						JOINT Bip01_L_UpperArm
						{
							OFFSET 0.058294 -0.172291 0.208958
							CHANNELS 3 Zrotation Yrotation Xrotation
							JOINT Bip01_L_Forearm
							{
								OFFSET -0.013505 -0.250138 -0.185986
								CHANNELS 3 Zrotation Yrotation Xrotation
								JOINT Bip01_L_Hand
								{
									OFFSET -0.024064 -0.325029 0.017747
									CHANNELS 3 Zrotation Yrotation Xrotation
									JOINT Bip01_L_Finger0
									{
										OFFSET -0.022278 -0.094798 -0.005981
										CHANNELS 3 Zrotation Yrotation Xrotation
										End Site #name: Bip01_L_Finger0Nub
										{
											OFFSET 0.069141 -0.002725 0.132355
										}
									}
								}
							}
						}
					}
					JOINT Bip01_Neck1
					{
						OFFSET -0.002498 0.107106 0.116267
						CHANNELS 3 Zrotation Yrotation Xrotation
						JOINT Bip01_Head
						{
							OFFSET -0.000596 0.117028 0.096504
							CHANNELS 3 Zrotation Yrotation Xrotation
							End Site #name: BN_Beard_L
							{
								OFFSET 0.040925 -0.111506 0.266375
							}
							End Site #name: BN_Beard_R
							{
								OFFSET -0.044216 -0.111505 0.265849
							}
							JOINT BN_Mouth
							{
								OFFSET -0.000044 -0.036876 0.006908
								CHANNELS 3 Zrotation Yrotation Xrotation
								JOINT BN_Thouge_01
								{
									OFFSET -0.000833 -0.119228 0.134723
									CHANNELS 3 Zrotation Yrotation Xrotation
									End Site #name: BN_Thouge_02
									{
										OFFSET -0.000347 -0.028139 0.056177
									}
								}
							}
							End Site #name: BN_Ear_L
							{
								OFFSET 0.087868 0.057358 0.054051
							}
							End Site #name: BN_Ear_R
							{
								OFFSET -0.088534 0.057359 0.052961
							}
							End Site #name: Bip01_HeadNub
							{
								OFFSET -0.002052 0.000000 0.332235
							}
						}
					}
				}
			}
		}
	}
}
MOTION
Frames: 11
Frame Time: 0.041667
-0.000698 0.309820 0.034745 -20.943017 -25.005740 -75.219028 0.960766 26.706768 36.413137 0.925348 22.488973 -92.311516 20.509656 -6.440430 -93.637910 33.380366 -19.765459 36.941380 -21.279203 -4.791734 -12.782210 3.917778 -0.480248 68.203375 -10.663968 -1.723231 -94.863008 12.124887 -18.771098 59.976683 19.353088 34.081410 28.460550 3.031878 -1.725582 -23.093904 -8.514064 19.714119 75.010011 27.772070 23.609657 -87.537884 -52.146077 7.051224 78.204928 1.325686 10.115020 -4.217899 0.537841 1.789637 1.065421 -1.519670 -4.253797 27.207485 -6.566496 2.160601 15.420384 1.442281 4.960668 -7.445109 -0.984036 0.308129 -10.579477 3.168788 -1.026807 -22.961332 -6.865834 -5.813714 -20.728883 38.247924 9.009957 60.067094 2.603923 -3.067123 -18.973231 -3.938393 2.264639 19.050982 -5.633099 0.788850 -33.226208 -6.023455 -6.480774 36.394700 3.078477 -4.518442 -5.775047 -1.115438 0.952618 9.155506 6.440188 -6.752266 -7.558644 1.015385 2.990436 -24.907772 -11.608648 -16.527942 15.930768 
-0.000882 0.313372 0.034964 -23.249660 -26.374108 -73.397877 0.299526 25.274222 34.415942 3.249714 23.321142 -91.930813 21.355723 -6.456934 -93.508722 35.937082 -20.164912 35.986292 -21.414876 -4.920665 -13.178761 4.064163 -1.273818 67.864958 -10.278308 -1.196851 -94.677344 11.498501 -19.063828 59.841044 20.626581 34.465428 30.189289 3.207046 -1.696922 -23.754551 -8.459618 19.219672 74.942700 28.412539 23.991752 -86.611119 -52.897474 6.390330 78.003693 1.503838 9.783812 -4.707070 0.434996 1.466213 0.175071 -1.462575 -4.176135 27.121235 -6.534422 2.421855 15.460005 1.476725 4.960735 -7.341735 -0.701207 0.158999 -10.254085 3.581595 -0.896834 -22.507620 -6.813440 -5.611192 -20.084638 37.276792 9.781942 58.345634 2.501783 -3.206983 -18.894302 -3.528387 1.813778 18.978435 -5.651757 0.788533 -33.151301 -5.807201 -6.587510 36.494947 2.928599 -4.384870 -5.505984 -1.435618 1.263316 9.617856 7.766513 -5.669054 -8.197853 0.180878 1.218502 -24.305926 -11.463780 -17.042691 13.372902 
-0.001051 0.316050 0.035160 -25.571863 -28.046584 -71.651163 -0.246404 23.803427 32.591206 5.545810 24.281956 -91.682001 22.115717 -6.374891 -93.813534 38.893010 -20.482851 35.294407 -21.592866 -5.066083 -13.752255 4.208583 -2.070634 67.595268 -9.994447 -0.797018 -94.488414 11.187678 -19.094227 59.509832 21.785244 34.362015 31.878084 3.403793 -1.692533 -24.650430 -8.350004 18.708937 75.087253 28.906245 24.065134 -85.511435 -53.120616 5.704111 77.427825 1.652855 9.511022 -5.117214 0.342952 1.164225 -0.758836 -1.373340 -3.972640 26.936900 -6.538242 2.486044 15.485759 1.450050 4.781107 -7.026764 -0.449343 0.012490 -10.125245 4.101858 -0.761706 -22.471377 -6.564046 -5.290009 -19.124835 36.233183 10.550380 56.525529 2.369798 -3.414138 -18.868832 -3.182716 1.436194 19.091249 -5.603451 0.819280 -33.348443 -5.683488 -6.794749 37.249094 2.973834 -4.276522 -5.591496 -1.698348 1.529289 10.212695 8.840541 -4.753242 -9.059955 -0.732093 -0.620808 -23.617097 -10.256285 -16.286407 9.864115 
-0.001192 0.318721 0.035357 -28.995384 -29.909983 -69.106716 -0.843459 21.619081 30.605166 8.749675 25.568160 -91.423879 22.707406 -6.276375 -93.669478 42.385608 -21.221052 33.876132 -21.645262 -5.245640 -14.448186 4.374406 -2.535744 67.624415 -9.632365 -0.345187 -94.326976 10.935693 -19.099281 59.206387 22.470496 34.291445 32.896876 3.701020 -1.609980 -25.312146 -8.318569 18.412517 75.003542 29.522373 24.342112 -84.499735 -53.558664 5.155392 77.163878 1.869758 9.183473 -5.710440 0.291246 1.018228 -1.613231 -1.298108 -3.819798 26.837173 -6.887300 2.693772 15.505908 1.607529 4.972876 -6.944824 0.082504 -0.284214 -9.862576 4.246050 -0.726064 -22.356746 -6.231882 -5.061650 -18.488823 35.552990 10.896450 55.420755 2.366799 -3.425087 -18.946376 -2.675102 0.828358 19.280673 -5.505501 0.892967 -33.623051 -5.641834 -6.855973 37.485360 2.714538 -4.351904 -5.117154 -1.855875 1.667388 10.683831 9.947099 -3.699843 -9.517854 -1.320397 -1.821996 -23.303312 -9.731760 -15.842393 8.500569 
-0.001318 0.320677 0.035549 -31.843857 -31.504287 -66.962571 -1.363402 19.857531 28.774022 11.625506 26.435935 -91.002145 23.620024 -6.274877 -93.839453 45.460676 -21.534974 32.853215 -21.796151 -5.377919 -14.903487 4.500462 -3.203917 67.366484 -9.333029 0.056052 -94.299191 10.696323 -19.184374 59.087322 23.508708 34.185796 34.403947 3.801538 -1.603529 -25.843863 -8.263427 17.936943 74.847934 30.033439 24.529320 -83.582440 -53.645269 4.541093 76.624037 1.861749 8.709661 -5.610825 0.225019 0.767431 -2.310896 -1.205094 -3.618637 26.592107 -6.806859 2.784550 15.509015 1.636305 4.835839 -6.570484 0.289307 -0.408212 -9.726157 4.617256 -0.642008 -22.634915 -5.711866 -4.687190 -17.409650 34.698120 11.392761 53.989686 2.256498 -3.555158 -18.804917 -2.294238 0.427128 19.263912 -5.650942 0.845461 -33.726267 -5.362448 -6.946315 37.356437 2.443268 -4.405401 -4.620739 -2.057603 1.880129 11.453352 10.673476 -2.869169 -10.450474 -1.875561 -2.927964 -22.859823 -10.194800 -17.316666 5.911362 
-0.001450 0.323092 0.035740 -36.489445 -33.986460 -64.339935 -1.701485 17.258993 27.176280 16.418174 27.870054 -89.918305 24.521334 -5.811825 -94.157719 50.032724 -22.723967 31.591118 -21.713687 -5.463014 -15.574508 4.620976 -3.784299 67.197445 -9.232535 0.196366 -94.065068 10.592539 -19.295303 59.212280 24.678040 34.687857 35.885337 4.198716 -1.451765 -26.426314 -8.204972 17.455553 74.818039 30.126571 24.415276 -83.050752 -53.932880 3.942992 76.233870 1.750710 9.289450 -5.367807 0.133033 0.353596 -3.064088 -1.032507 -3.247900 26.508748 -6.907370 2.903015 15.308843 1.718914 4.857635 -6.339777 0.641133 -0.602817 -9.511346 5.066647 -0.538008 -22.798537 -5.419730 -4.389131 -16.480672 33.873700 11.467981 52.796379 2.365334 -3.362748 -18.823301 -1.897442 -0.063846 19.458659 -5.885713 0.793891 -33.936658 -5.158244 -7.063152 37.525405 2.095321 -4.714829 -3.983402 -2.242068 2.050314 11.990505 11.524888 -2.221920 -11.088589 -2.285463 -3.718324 -22.467314 -9.888640 -17.703463 2.956626 
-0.001598 0.325071 0.035914 -39.255466 -35.436376 -62.505169 -1.916884 15.877024 26.177850 19.342014 28.387359 -88.974802 25.619383 -5.625705 -94.522396 52.800400 -23.057937 31.179611 -22.018923 -5.605442 -16.160619 4.646101 -4.341072 67.051193 -8.901440 0.727093 -94.169628 10.364548 -19.401937 59.132999 25.694635 34.626880 37.287953 4.501001 -1.374188 -27.322461 -8.140140 17.204481 74.803800 30.917761 24.658216 -81.683677 -54.834980 2.460374 75.346698 1.595917 10.039892 -5.016727 0.089439 0.174528 -3.840755 -0.927172 -3.004312 26.266563 -6.907125 3.014277 15.114223 1.866954 4.837052 -5.861082 0.940953 -0.784253 -9.328553 5.305916 -0.489013 -23.180072 -5.224408 -4.180750 -15.818177 33.477186 11.484846 52.222640 2.278928 -3.445048 -18.684735 -1.478389 -0.539557 19.654700 -5.910543 0.813885 -34.447423 -5.007642 -7.146649 37.617915 1.751434 -4.999024 -3.356851 -2.487300 2.321318 13.199612 12.176723 -2.060886 -12.369772 -2.447708 -4.023379 -22.063489 -9.237010 -17.237236 0.727495 
-0.001744 0.327153 0.036082 -44.023248 -37.159126 -58.538782 -2.426509 12.930507 24.138374 23.434818 29.326119 -88.037851 26.867731 -5.646613 -94.548680 57.248446 -23.143985 29.264142 -21.883302 -5.726241 -16.986414 4.857801 -4.924331 66.956290 -8.999837 0.514532 -93.939789 10.487935 -19.349099 59.201158 26.787650 35.022141 38.697746 4.787914 -1.275659 -28.113394 -8.088083 16.836102 74.745554 31.182543 24.643467 -80.991812 -55.060263 1.715986 74.791514 1.376961 10.116557 -4.363016 0.010900 -0.176825 -4.608785 -0.793666 -2.665316 26.083161 -6.773009 3.027141 14.932245 1.960828 4.857714 -5.639466 1.182394 -0.936386 -9.077911 5.546301 -0.432658 -23.507112 -4.909820 -3.819631 -14.641129 32.419626 11.409801 50.737691 2.295390 -3.405503 -18.630082 -1.103859 -0.956938 19.922179 -6.146002 0.753246 -35.107448 -4.921285 -7.224478 37.796832 1.387781 -5.131244 -2.697452 -2.820962 2.689348 13.633309 12.213241 -1.893525 -12.838075 -2.574672 -4.256807 -21.801708 -9.090518 -17.433217 -0.753925 
-0.001905 0.329513 0.036288 -50.306903 -39.214723 -53.296465 -2.746315 9.587027 22.081794 28.376440 30.409909 -86.772696 28.367936 -5.606229 -94.820725 62.920889 -23.150047 26.641217 -21.877609 -5.947129 -17.867487 5.079424 -5.283343 67.008282 -8.982956 0.409438 -93.825139 10.663820 -19.362202 59.506911 27.041894 34.768839 39.194425 5.084527 -1.192371 -29.037380 -8.023594 16.645840 74.995315 31.770398 24.870746 -80.138434 -55.091017 1.063727 74.178784 1.193606 9.856031 -3.779279 -0.047659 -0.454802 -5.312374 -0.692872 -2.359689 25.958846 -6.352854 3.092607 14.522542 2.016637 4.783918 -5.359864 1.196384 -0.961870 -8.649015 5.594578 -0.414287 -23.752042 -4.600219 -3.596159 -13.928750 31.861583 11.203528 50.006821 2.202852 -3.419555 -18.177244 -0.781251 -1.235908 19.907369 -6.376054 0.667229 -35.890992 -5.224366 -7.222803 38.346887 0.949293 -5.292464 -1.904908 -3.162105 3.098116 14.281937 12.336972 -1.738119 -13.120490 -2.846338 -4.773748 -21.731276 -8.527895 -15.950844 0.796070 
-0.002044 0.331818 0.036495 -57.900843 -41.012723 -47.673708 -2.783480 5.482131 20.836176 33.895563 31.954262 -85.278406 29.276024 -5.328052 -94.820799 69.351023 -23.602047 24.007179 -21.856443 -6.165564 -18.728749 5.280417 -5.596536 66.896103 -9.093361 0.126509 -93.659298 11.078489 -19.138419 59.580000 28.147549 34.777708 40.769492 5.330830 -1.114219 -29.817794 -7.996721 16.424182 74.858563 32.089188 25.004669 -79.671404 -55.402372 0.448560 73.811758 1.033040 10.153471 -3.326766 -0.079380 -0.623939 -6.004679 -0.643868 -2.229340 25.703330 -6.203279 3.168109 13.974394 2.211975 4.850953 -4.958811 1.263483 -1.008044 -8.125017 5.467496 -0.449629 -24.075501 -4.166940 -3.436287 -13.458756 31.546977 11.005326 49.624815 2.071156 -3.451625 -17.682420 -0.384707 -1.640495 19.949457 -6.425239 0.669566 -36.803897 -6.154610 -7.020154 39.272610 0.751859 -5.064852 -1.543760 -3.718182 3.743945 15.072288 12.615285 -1.758456 -13.611060 -3.036219 -5.107675 -21.527513 -8.426461 -16.620025 -2.257000 
-0.002183 0.333380 0.036728 -69.561215 -42.771812 -38.896951 -2.490643 -0.090320 19.703835 42.135028 33.646635 -82.727312 30.686840 -4.982449 -95.122223 78.973523 -23.772585 19.706972 -21.852755 -6.494676 -19.614940 5.572744 -5.706470 66.914244 -9.130860 -0.180622 -93.470591 11.310983 -18.938030 59.499546 28.572802 34.561147 41.547663 5.398548 -1.141481 -30.602241 -7.992192 16.379458 74.784105 32.277535 25.065061 -79.362051 -55.251749 0.157159 73.442529 0.745900 9.824078 -2.428964 -0.112626 -0.838312 -6.717251 -0.565847 -1.934468 25.534498 -6.198604 3.255531 13.732602 2.180642 4.731395 -4.800095 1.523669 -1.181369 -7.797549 5.583408 -0.415385 -24.226803 -3.649226 -3.283666 -13.019217 31.167306 10.806712 49.149759 1.951800 -3.644438 -17.619036 0.107931 -2.176253 20.273266 -6.501959 0.668317 -37.894809 -7.107614 -6.738432 39.928508 0.280175 -4.696573 -0.679286 -3.909346 3.983683 15.537653 12.502870 -1.665462 -13.921819 -3.125976 -5.283207 -21.513967 -8.222244 -16.241880 -2.247980 
